# xmcd
#
# Track frame offsets: 
#        150
#        12209
#        26589
#        40537
#        51643
#        62719
#        74644
#        87981
#        101194
#        113065
#        129695
#        144144
#        160041
#        171866
#        179258
#        190716
#        202834
#        227493
#
# Disc length: 3295 seconds
#
# Revision: 0
# Processed by: cddbd v1.5.2PL0 Copyright (c) Steve Scherf et al.
# Submitted via: ExactAudioCopy v0.95a5
#
DISCID=f00cdd12
DTITLE=Various Artist - Танго - огонь страсти
DYEAR=2004
DGENRE=Tango
TTITLE0=Cancion De Buenos Aires
TTITLE1=La Cumparsita
TTITLE2=Sentimento Gaucho
TTITLE3=Milonga Que Peina Canas
TTITLE4=Sobre El Pucho
TTITLE5=Vieja Luna
TTITLE6=El Tiempo Sera Testigo
TTITLE7=Quedemonos Aqui
TTITLE8=El Ultimo Cafe
TTITLE9=Alma De Bandoneon
TTITLE10=Todo Es Cruel
TTITLE11=A Los Amigos
TTITLE12=Cada Vez Que Me Recuerdes
TTITLE13=Viejo Cafe
TTITLE14=El Abrojito
TTITLE15=Que Me Van A Hablar De Amor
TTITLE16=Yira, Yira
TTITLE17=mp3 bonus
EXTD=
EXTT0=
EXTT1=
EXTT2=
EXTT3=
EXTT4=
EXTT5=
EXTT6=
EXTT7=
EXTT8=
EXTT9=
EXTT10=
EXTT11=
EXTT12=
EXTT13=
EXTT14=
EXTT15=
EXTT16=
EXTT17=
PLAYORDER=
